# ASF file generated by Tido's ASF writer for MATLAB.
:version 1.10
:name VICON
:units
  mass 1
  length 0.45000000000000001
  angle deg
:documentation
   .ast/.asf automatically generated from VICON data using
   VICON BodyBuilder and BodyLanguage model FoxedUp or BRILLIANT.MOD
:root
  axis xyz
  order tx ty tz rx ry rz 
  position 0 0 0
  orientation 0 0 0
:bonedata
  begin
    id 1
    name lhipjoint
    direction 0.44017800000000001 -0.82263900000000001 0.359871
    length 1.1390085000000001
    axis 0 0 0 xyz
  end
  begin
    id 2
    name lfemur
    direction 0.34201999999999999 -0.939693 0
    length 3.5465939999999998
    axis 0 0 20 xyz
    dof rx ry rz 
    limits (-160 20)
           (-70 70)
           (-60 70)
  end
  begin
    id 3
    name ltibia
    direction 0.34201999999999999 -0.939693 0
    length 3.7970234999999999
    axis 0 0 20 xyz
    dof rx 
    limits (-10 170)
  end
  begin
    id 4
    name lfoot
    direction 0.088635099999999994 -0.24352299999999999 0.96583699999999995
    length 1.1853629999999999
    axis -90 7.62852e-016 20 xyz
    dof rx rz 
    limits (-45 90)
           (-70 20)
  end
  begin
    id 5
    name ltoes
    direction 1.53703e-011 -4.2171700000000001e-011 1
    length 0.59142150000000004
    axis -90 7.62852e-016 20 xyz
    dof rx 
    limits (-90 20)
  end
  begin
    id 6
    name rhipjoint
    direction -0.399779 -0.83977299999999999 0.367367
    length 1.115766
    axis 0 0 0 xyz
  end
  begin
    id 7
    name rfemur
    direction -0.34201999999999999 -0.939693 0
    length 3.4866269999999999
    axis 0 0 -20 xyz
    dof rx ry rz 
    limits (-160 20)
           (-70 70)
           (-70 60)
  end
  begin
    id 8
    name rtibia
    direction -0.34201999999999999 -0.939693 0
    length 3.9349440000000002
    axis 0 0 -20 xyz
    dof rx 
    limits (-10 170)
  end
  begin
    id 9
    name rfoot
    direction -0.108514 -0.29813899999999999 0.94833400000000001
    length 1.1974590000000001
    axis -90 -7.62852e-016 -20 xyz
    dof rx rz 
    limits (-45 90)
           (-20 70)
  end
  begin
    id 10
    name rtoes
    direction -1.5339199999999999e-011 -4.2207699999999999e-011 1
    length 0.59392350000000005
    axis -90 -7.62852e-016 -20 xyz
    dof rx 
    limits (-90 20)
  end
  begin
    id 11
    name lowerback
    direction 0.011325699999999999 0.99986600000000003 0.0118602
    length 1.164123
    axis 0 0 0 xyz
    dof rx ry rz 
    limits (-20 45)
           (-30 30)
           (-30 30)
  end
  begin
    id 12
    name upperback
    direction -0.016474699999999998 0.99519299999999999 -0.096537499999999998
    length 1.135656
    axis 0 0 0 xyz
    dof rx ry rz 
    limits (-20 45)
           (-30 30)
           (-30 30)
  end
  begin
    id 13
    name thorax
    direction -0.019430099999999999 0.99433000000000005 -0.10455200000000001
    length 1.1524455
    axis 0 0 0 xyz
    dof rx ry rz 
    limits (-20 45)
           (-30 30)
           (-30 30)
  end
  begin
    id 14
    name lowerneck
    direction 0.014854300000000001 0.995587 -0.092657000000000003
    length 0.772119
    axis 0 0 0 xyz
    dof rx ry rz 
    limits (-20 45)
           (-30 30)
           (-30 30)
  end
  begin
    id 15
    name upperneck
    direction -0.0135467 0.99365599999999998 -0.111639
    length 0.76021650000000007
    axis 0 0 0 xyz
    dof rx ry rz 
    limits (-20 45)
           (-30 30)
           (-30 30)
  end
  begin
    id 16
    name head
    direction -0.0061534900000000002 0.99954699999999996 -0.029447999999999998
    length 0.78578999999999999
    axis 0 0 0 xyz
    dof rx ry rz 
    limits (-20 45)
           (-30 30)
           (-30 30)
  end
  begin
    id 17
    name lclavicle
    direction 0.98826700000000001 0.14988499999999999 0.029371299999999999
    length 2.012499
    axis 0 0 0 xyz
    dof ry rz 
    limits (-20 10)
           (0 20)
  end
  begin
    id 18
    name lhumerus
    direction 1 -4.4898600000000001e-011 -1.1483300000000001e-027
    length 2.4171659999999999
    axis 180 -30 -90 xyz
    dof rx ry rz 
    limits (-60 90)
           (-90 90)
           (-90 90)
  end
  begin
    id 19
    name lradius
    direction 0.99999800000000005 0.00170963 -0.00098705499999999992
    length 1.773954
    axis 180 -30 -90 xyz
    dof rx 
    limits (-10 170)
  end
  begin
    id 20
    name lwrist
    direction 0.99999800000000005 7.53149e-005 -0.00194706
    length 0.88697700000000002
    axis 4.6505600000000004e-015 90 90 xyz
    dof ry 
    limits (-180 0)
  end
  begin
    id 21
    name lhand
    direction 1 -4.48973e-011 -1.3174599999999999e-026
    length 0.5306265
    axis 8.4064999999999996e-015 90 90 xyz
    dof rx rz 
    limits (-90 90)
           (-45 45)
  end
  begin
    id 22
    name lfingers
    direction 1 -4.49107e-011 -2.6349199999999999e-026
    length 0.42780555000000003
    axis 1.6812999999999999e-014 90 90 xyz
    dof rx 
    limits (0 90)
  end
  begin
    id 23
    name lthumb
    direction 0.70710700000000004 -6.3504800000000005e-011 0.70710700000000004
    length 0.6142455
    axis -90 45 2.8529899999999998e-015 xyz
    dof rx rz 
    limits (-45 45)
           (-45 45)
  end
  begin
    id 24
    name rclavicle
    direction -0.996699 0.064289499999999999 -0.049572499999999999
    length 2.0817494999999999
    axis 0 0 0 xyz
    dof ry rz 
    limits (-10 20)
           (-20 0)
  end
  begin
    id 25
    name rhumerus
    direction -1 -4.4891899999999998e-011 -2.4105900000000001e-027
    length 2.474145
    axis 180 30 90 xyz
    dof rx ry rz 
    limits (-90 60)
           (-90 90)
           (-90 90)
  end
  begin
    id 26
    name rradius
    direction -0.99999899999999997 0.0011810099999999999 -0.00068185800000000003
    length 1.5677145000000001
    axis 180 30 90 xyz
    dof rx 
    limits (-10 170)
  end
  begin
    id 27
    name rwrist
    direction -0.99999899999999997 0.000321823 -0.00132288
    length 0.78385499999999997
    axis 4.6505600000000004e-015 -90 -90 xyz
    dof ry 
    limits (-180 0)
  end
  begin
    id 28
    name rhand
    direction -1 -4.4902199999999998e-011 -1.3174599999999999e-026
    length 0.60719400000000001
    axis 8.4064999999999996e-015 -90 -90 xyz
    dof rx rz 
    limits (-90 90)
           (-45 45)
  end
  begin
    id 29
    name rfingers
    direction -1 -4.4917800000000002e-011 -2.6349199999999999e-026
    length 0.48953249999999998
    axis 1.6812999999999999e-014 -90 -90 xyz
    dof rx 
    limits (0 90)
  end
  begin
    id 30
    name rthumb
    direction -0.70710700000000004 -6.3471300000000002e-011 0.70710700000000004
    length 0.70287750000000004
    axis -90 -45 -2.8529899999999998e-015 xyz
    dof rx rz 
    limits (-45 45)
           (-45 45)
  end
:hierarchy
begin
  root lhipjoint rhipjoint lowerback 
  lhipjoint lfemur 
  lfemur ltibia 
  ltibia lfoot 
  lfoot ltoes 
  rhipjoint rfemur 
  rfemur rtibia 
  rtibia rfoot 
  rfoot rtoes 
  lowerback upperback 
  upperback thorax 
  thorax lowerneck lclavicle rclavicle 
  lowerneck upperneck 
  upperneck head 
  lclavicle lhumerus 
  lhumerus lradius 
  lradius lwrist 
  lwrist lhand lthumb 
  lhand lfingers 
  rclavicle rhumerus 
  rhumerus rradius 
  rradius rwrist 
  rwrist rhand rthumb 
  rhand rfingers 
end

# AMC file generated by Tido's AMC writer for MATLAB on 27-Nov-2005 at 18:24:20
# Corresponding ASF file: S:\data_MoCap\MoCaDaDB\HDM\Bonn_ASF_AMC_Use IK_on\björn\bjorn.asf
# Number of frames: 542
# Sampling rate: 120
:fully-specified
:degrees
170
root -2.6864730000000003 8.3036700000000003 -11.76507 170.35300000000001 74.398399999999995 532.65800000000002 
lfemur -29.854800000000001 3.0934900000000001 -14.9351 
ltibia 35.825699999999998 
lfoot -0.97807100000000002 -8.5711499999999994 
ltoes -18.783200000000001 
rfemur 14.9002 8.1942199999999996 22.403400000000001 
rtibia 32.608199999999997 
rfoot 8.0843600000000002 30.337800000000001 
rtoes 28.413599999999999 
lowerback -0.83828599999999998 2.3323700000000001 -3.8475700000000002 
upperback 10.8308 4.64933 -4.6582100000000004 
thorax 12.299099999999999 2.46915 -2.3289800000000001 
lowerneck 3.4754200000000002 -11.949 -1.0801499999999999 
upperneck 4.8806200000000004 -16.276900000000001 12.430300000000001 
head 2.2626499999999998 -7.9372600000000002 4.0132300000000001 
lclavicle 6.2418399999999998e-014 -3.6576399999999999e-014 
lhumerus -26.1907 13.3066 78.658500000000004 
lradius 18.963999999999999 
lwrist -30.8264 
lhand -14.9937 -4.5385299999999997 
lfingers 7.1250200000000001 
lthumb 11.1708 25.144100000000002 
rclavicle 6.2418399999999998e-014 -3.6576399999999999e-014 
rhumerus -22.738 2.7907700000000002 -100.432 
rradius 53.459000000000003 
rwrist 3.25441 
rhand -18.188199999999998 18.087 
rfingers 7.1250200000000001 
rthumb 8.0886700000000005 -11.738200000000001 
171
root -2.6104680000000005 8.3119499999999995 -11.803229999999999 168.92500000000001 74.779799999999994 531.24300000000005 
lfemur -29.310300000000002 3.008 -15.2479 
ltibia 36.286499999999997 
lfoot -1.16587 -8.4719899999999999 
ltoes -18.502800000000001 
rfemur 14.0863 8.1373999999999995 21.835100000000001 
rtibia 34.591000000000001 
rfoot 10.429500000000001 29.3598 
rtoes 27.918500000000002 
lowerback -0.91216399999999997 2.2824300000000002 -4.4009799999999997 
upperback 10.8742 4.6474099999999998 -4.7320099999999998 
thorax 12.368 2.4193699999999998 -2.1000299999999998 
lowerneck 3.1175600000000001 -11.8309 -1.0508200000000001 
upperneck 5.1561000000000003 -16.156500000000001 12.331300000000001 
head 2.3956400000000002 -7.8528799999999999 3.9477699999999998 
lclavicle -6.3611099999999997e-015 3.9756900000000002e-014 
lhumerus -25.813500000000001 13.2377 78.677000000000007 
lradius 19.070799999999998 
lwrist -30.3476 
lhand -15.0123 -4.4567800000000002 
lfingers 7.1250200000000001 
lthumb 11.152900000000001 25.226800000000001 
rclavicle -6.3611099999999997e-015 3.9756900000000002e-014 
rhumerus -22.660399999999999 2.2562799999999998 -100.354 
rradius 51.671500000000002 
rwrist 3.2259699999999998 
rhand -18.1282 17.959700000000002 
rfingers 7.1250200000000001 
rthumb 8.1466499999999993 -11.863300000000001 
172
root -2.5341795 8.32212 -11.840625000000001 167.583 75.146600000000007 529.92200000000003 
lfemur -28.7166 3.06359 -15.5534 
ltibia 36.668700000000001 
lfoot -1.44747 -8.4289299999999994 
ltoes -18.1751 
rfemur 13.148999999999999 8.0137900000000002 21.273499999999999 
rtibia 36.680100000000003 
rfoot 12.6768 28.2865 
rtoes 26.3886 
lowerback -0.98157099999999997 2.2094399999999998 -4.8756000000000004 
upperback 10.903600000000001 4.6100700000000003 -4.8315400000000004 
thorax 12.426600000000001 2.3618299999999999 -1.94757 
lowerneck 2.8182399999999999 -11.6972 -0.98388299999999995 
upperneck 5.4154499999999999 -16.0092 12.248900000000001 
head 2.5095700000000001 -7.7564399999999996 3.8883200000000002 
lclavicle 9.9392299999999996e-015 -7.63333e-014 
lhumerus -25.486999999999998 12.724399999999999 78.723600000000005 
lradius 19.279599999999999 
lwrist -29.4269 
lhand -15.0328 -4.3019699999999998 
lfingers 7.1250200000000001 
lthumb 11.133100000000001 25.3827 
rclavicle 9.9392299999999996e-015 -7.63333e-014 
rhumerus -22.3779 1.8603400000000001 -100.271 
rradius 49.688000000000002 
rwrist 2.8890799999999999 
rhand -18.031700000000001 17.692599999999999 
rfingers 7.1250200000000001 
rthumb 8.2397200000000002 -12.1267 
173
root -2.4583500000000003 8.3335950000000008 -11.87613 166.404 75.518199999999993 528.79999999999995 
lfemur -28.061800000000002 3.23468 -15.7973 
ltibia 36.971699999999998 
lfoot -1.8386899999999999 -8.4776299999999996 
ltoes -17.932400000000001 
rfemur 12.1462 7.7830000000000004 20.758800000000001 
rtibia 38.822499999999998 
rfoot 15.0197 27.105899999999998 
rtoes 24.4208 
lowerback -1.0060500000000001 2.1335099999999998 -5.2972700000000001 
upperback 10.9458 4.5618699999999999 -4.9159600000000001 
thorax 12.4758 2.30382 -1.81155 
lowerneck 2.4752999999999998 -11.5616 -0.92801199999999995 
upperneck 5.6981000000000002 -15.865399999999999 12.1928 
head 2.6440199999999998 -7.6587699999999996 3.8371 
lclavicle -6.5201400000000003e-014 2.22639e-014 
lhumerus -25.1709 12.1302 78.776399999999995 
lradius 19.551200000000001 
lwrist -28.3978 
lhand -15.1053 -4.1067900000000002 
lfingers 7.1250200000000001 
lthumb 11.0632 25.581600000000002 
rclavicle -6.5201400000000003e-014 2.22639e-014 
rhumerus -22.284099999999999 1.3827100000000001 -100.184 
rradius 47.8827 
rwrist 2.6259100000000002 
rhand -17.8644 17.398299999999999 
rfingers 7.1250200000000001 
rthumb 8.4011800000000001 -12.4147 
174
root -2.3827859999999998 8.3461050000000014 -11.909745000000001 165.065 75.890500000000003 527.52499999999998 
lfemur -27.350999999999999 3.5367899999999999 -16.066500000000001 
ltibia 37.182400000000001 
lfoot -2.2515900000000002 -8.6543200000000002 
ltoes -17.3719 
rfemur 11.096 7.6042699999999996 20.267399999999999 
rtibia 40.991500000000002 
rfoot 17.3947 25.686900000000001 
rtoes 22.008600000000001 
lowerback -1.0357799999999999 2.0505300000000002 -5.7528499999999996 
upperback 10.995200000000001 4.5108100000000002 -5.0082100000000001 
thorax 12.537699999999999 2.2416 -1.6659299999999999 
lowerneck 2.1927500000000002 -11.4125 -0.83555500000000005 
upperneck 5.9104400000000004 -15.693 12.1295 
head 2.73786 -7.5518200000000002 3.7848999999999999 
lclavicle 3.6973899999999998e-014 -4.9298600000000002e-014 
lhumerus -24.834 11.5268 78.8245 
lradius 19.859000000000002 
lwrist -27.351700000000001 
lhand -15.2049 -3.8287100000000001 
lfingers 7.1250200000000001 
lthumb 10.9671 25.864799999999999 
rclavicle 3.6973899999999998e-014 -4.9298600000000002e-014 
rhumerus -22.143699999999999 0.94208000000000003 -100.099 
rradius 46.035299999999999 
rwrist 2.3231700000000002 
rhand -17.5703 17.0458 
rfingers 7.1250200000000001 
rthumb 8.6850400000000008 -12.7555 
